<svg width="800" height="175" viewBox="0 0 800 175" fill="none" xmlns="http://www.w3.org/2000/svg">
<path d="M94.6909 67.0712V55.4067H96.1477V67.0712H94.6909Z" fill="url(#paint0_linear)"/>
<path d="M131.11 55.4067V67.0712H132.567V55.4067H131.11Z" fill="url(#paint1_linear)"/>
<path d="M82.4469 112.023C80.479 114.622 79.3947 117.212 79.3947 119.562H77.9379C77.9379 116.775 79.2125 113.881 81.2859 111.142C83.3654 108.396 86.2915 105.748 89.7059 103.441C96.5258 98.8312 105.406 95.5036 113.629 95.5036C121.852 95.5036 130.732 98.8312 137.552 103.441C140.967 105.748 143.893 108.396 145.972 111.142C148.046 113.881 149.32 116.775 149.32 119.562H147.863C147.863 117.212 146.779 114.622 144.811 112.023C142.85 109.432 140.052 106.889 136.737 104.649C130.098 100.162 121.497 96.9617 113.629 96.9617C105.761 96.9617 97.1598 100.162 90.5211 104.649C87.2062 106.889 84.4086 109.432 82.4469 112.023Z" fill="url(#paint2_linear)"/>
<path fill-rule="evenodd" clip-rule="evenodd" d="M10.1972 10.2066V164.762H217.06V10.2066H10.1972ZM215.604 11.6646H11.654V163.304H215.604V11.6646Z" fill="url(#paint3_linear)"/>
<path fill-rule="evenodd" clip-rule="evenodd" d="M0 5.83229C0 2.61121 2.6089 0 5.82713 0H221.431C224.649 0 227.258 2.6112 227.258 5.83228V83.11H233.311V86.0262H392.101V87.4842H233.311V90.4004H227.258V169.136C227.258 172.357 224.649 174.968 221.431 174.968H5.82713C2.6089 174.968 0 172.357 0 169.136V5.83229ZM5.82713 1.45807H221.431C223.845 1.45807 225.801 3.41647 225.801 5.83228V169.136C225.801 171.552 223.845 173.51 221.431 173.51H5.82713C3.41345 173.51 1.45678 171.552 1.45678 169.136V5.83229C1.45678 3.41647 3.41345 1.45807 5.82713 1.45807Z" fill="url(#paint4_linear)"/>
<path d="M422.392 85.7242L413.953 77.2777L414.983 76.2467L423.422 84.6932L431.861 76.2467L432.891 77.2777L424.452 85.7242L432.464 93.7436L431.434 94.7746L423.422 86.7552L415.409 94.7746L414.379 93.7436L422.392 85.7242Z" fill="url(#paint5_linear)"/>
<path fill-rule="evenodd" clip-rule="evenodd" d="M617.902 86.0262H456.199V87.4842H617.902V90.4004H625.186V87.4842C625.186 135.606 664.005 174.653 712.01 174.967V174.968H712.964L712.985 175L713.034 174.968H713.467V174.964C761.338 174.495 800 135.508 800 87.4842V86.0262H799.988C799.215 38.6733 760.853 0.4689 713.467 0.00428331V0H712.01V0.00190359C664.491 0.312435 625.973 38.5763 625.198 86.0262H625.186V83.11H617.902V86.0262ZM711.158 1.46981C664.836 2.22857 627.425 39.6655 626.655 86.0262H667.446C667.994 49.904 685.485 18.4531 711.158 1.46981ZM667.433 87.4842H626.643C626.643 134.214 663.869 172.242 710.259 173.479C684.668 156.09 667.433 124.348 667.433 87.7758C667.433 87.6786 667.433 87.5814 667.433 87.4842ZM712.01 172.898C686.333 155.941 668.89 124.342 668.89 87.7758C668.89 87.6786 668.89 87.5814 668.89 87.4842H712.01V172.898ZM668.903 86.0262C669.452 50.3382 686.745 19.3427 712.01 2.65406V86.0262H668.903ZM713.467 86.0262V2.89617C738.621 19.5818 755.837 50.3343 756.427 86.0262H713.467ZM713.467 87.4842V172.947C739.065 155.962 756.442 124.276 756.442 87.9216C756.442 87.7758 756.442 87.63 756.441 87.4842H713.467ZM798.531 86.0262C797.761 39.6397 760.309 2.18694 713.95 1.46858C739.712 18.3917 757.291 49.7251 757.883 86.0262H798.531ZM757.898 87.4842H798.543C798.543 134.088 761.517 172.037 715.302 173.468C740.767 156.037 757.899 124.242 757.899 87.9216V87.8255C757.899 87.7117 757.899 87.5979 757.898 87.4842Z" fill="url(#paint6_linear)"/>
<defs>
<linearGradient id="paint0_linear" x1="800" y1="-15.7975" x2="726.108" y2="330.042" gradientUnits="userSpaceOnUse">
<stop stop-color="#DCBE98"/>
<stop offset="1" stop-color="#E9CAA3"/>
</linearGradient>
<linearGradient id="paint1_linear" x1="800" y1="-15.7975" x2="726.108" y2="330.042" gradientUnits="userSpaceOnUse">
<stop stop-color="#DCBE98"/>
<stop offset="1" stop-color="#E9CAA3"/>
</linearGradient>
<linearGradient id="paint2_linear" x1="800" y1="-15.7975" x2="726.108" y2="330.042" gradientUnits="userSpaceOnUse">
<stop stop-color="#DCBE98"/>
<stop offset="1" stop-color="#E9CAA3"/>
</linearGradient>
<linearGradient id="paint3_linear" x1="800" y1="-15.7975" x2="726.108" y2="330.042" gradientUnits="userSpaceOnUse">
<stop stop-color="#DCBE98"/>
<stop offset="1" stop-color="#E9CAA3"/>
</linearGradient>
<linearGradient id="paint4_linear" x1="800" y1="-15.7975" x2="726.108" y2="330.042" gradientUnits="userSpaceOnUse">
<stop stop-color="#DCBE98"/>
<stop offset="1" stop-color="#E9CAA3"/>
</linearGradient>
<linearGradient id="paint5_linear" x1="800" y1="-15.7975" x2="726.108" y2="330.042" gradientUnits="userSpaceOnUse">
<stop stop-color="#DCBE98"/>
<stop offset="1" stop-color="#E9CAA3"/>
</linearGradient>
<linearGradient id="paint6_linear" x1="800" y1="-15.7975" x2="726.108" y2="330.042" gradientUnits="userSpaceOnUse">
<stop stop-color="#DCBE98"/>
<stop offset="1" stop-color="#E9CAA3"/>
</linearGradient>
</defs>
</svg>
