<svg id="logo_complitech" xmlns="http://www.w3.org/2000/svg" width="117" height="30" viewBox="0 0 117 30">
  <g id="Group_105" data-name="Group 105" transform="translate(33.03 5.28)">
    <path id="Path_2112" data-name="Path 2112" d="M115.26,43.97a10.837,10.837,0,0,1-1.32.09,4.673,4.673,0,0,1-2.55-.54,2.464,2.464,0,0,1-1.05-1.65,16.928,16.928,0,0,1-.24-3.24,12.953,12.953,0,0,1,.3-3.27,2.644,2.644,0,0,1,1.11-1.65,4.682,4.682,0,0,1,2.4-.51,10.918,10.918,0,0,1,1.35.09q.72.09,1.17.18v1.29a10.149,10.149,0,0,0-2.16-.21,3.421,3.421,0,0,0-1.68.3,1.54,1.54,0,0,0-.69,1.14,13.73,13.73,0,0,0-.18,2.64,14.1,14.1,0,0,0,.18,2.67,1.531,1.531,0,0,0,.72,1.11,3.555,3.555,0,0,0,1.71.3,10.63,10.63,0,0,0,2.19-.21v1.29A7.483,7.483,0,0,1,115.26,43.97Z" transform="translate(-110.1 -28.52)" fill="#515151"/>
    <path id="Path_2113" data-name="Path 2113" d="M137.52,43.61a2.107,2.107,0,0,1-1.08-1.5,18.513,18.513,0,0,1-.24-3.48,18.288,18.288,0,0,1,.24-3.48,2.05,2.05,0,0,1,1.08-1.5,8.874,8.874,0,0,1,5.58,0,2.107,2.107,0,0,1,1.08,1.5,18.513,18.513,0,0,1,.24,3.48,18.288,18.288,0,0,1-.24,3.48,2.05,2.05,0,0,1-1.08,1.5,8.874,8.874,0,0,1-5.58,0Zm4.59-1.2a1.384,1.384,0,0,0,.63-1.02,19.11,19.11,0,0,0,.12-2.76,19.117,19.117,0,0,0-.12-2.76,1.329,1.329,0,0,0-.63-1.02,4.144,4.144,0,0,0-1.8-.27,3.987,3.987,0,0,0-1.77.27,1.384,1.384,0,0,0-.63,1.02,19.12,19.12,0,0,0-.12,2.76,18.851,18.851,0,0,0,.12,2.76,1.384,1.384,0,0,0,.63,1.02,4.077,4.077,0,0,0,1.77.27A3.4,3.4,0,0,0,142.11,42.41Z" transform="translate(-128.37 -28.52)" fill="#515151"/>
    <path id="Path_2114" data-name="Path 2114" d="M182.68,37.82a11.764,11.764,0,0,0-.12-2.13,1.164,1.164,0,0,0-.54-.84,2.849,2.849,0,0,0-1.32-.21,2.4,2.4,0,0,0-1.53.39,1.839,1.839,0,0,0-.6,1.14,13.889,13.889,0,0,0-.12,2.22v5.49h-1.56V37.82a11.763,11.763,0,0,0-.12-2.13,1.164,1.164,0,0,0-.54-.84,2.849,2.849,0,0,0-1.32-.21,2.388,2.388,0,0,0-1.53.42,1.776,1.776,0,0,0-.6,1.17,13.707,13.707,0,0,0-.12,2.19v5.49H171.1V33.35h1.41l.09,1.5h.09a2.437,2.437,0,0,1,.96-1.23,3.443,3.443,0,0,1,1.92-.42,3.554,3.554,0,0,1,1.89.39,2.024,2.024,0,0,1,.84,1.26h.12a2.343,2.343,0,0,1,.99-1.23,3.555,3.555,0,0,1,1.95-.42,3.41,3.41,0,0,1,1.86.42,2.023,2.023,0,0,1,.84,1.26,9.576,9.576,0,0,1,.24,2.37v6.69h-1.56V37.82Z" transform="translate(-152.8 -28.52)" fill="#515151"/>
    <path id="Path_2115" data-name="Path 2115" d="M223.5,33.35h1.41l.09,1.5h.09a2.111,2.111,0,0,1,1.14-1.32,4.535,4.535,0,0,1,1.89-.33,3.8,3.8,0,0,1,2.13.48,2.6,2.6,0,0,1,1.02,1.59,13.6,13.6,0,0,1,.3,3.36,13.6,13.6,0,0,1-.3,3.36,2.472,2.472,0,0,1-1.02,1.62,3.8,3.8,0,0,1-2.13.48,4.748,4.748,0,0,1-1.89-.33,2.067,2.067,0,0,1-1.05-1.14h-.12v5.37H223.5Zm5.67,9.03a1.506,1.506,0,0,0,.66-1.08,13.67,13.67,0,0,0,.18-2.67,13.461,13.461,0,0,0-.18-2.67,1.506,1.506,0,0,0-.66-1.08,3.644,3.644,0,0,0-1.65-.27,2.9,2.9,0,0,0-1.47.3,1.7,1.7,0,0,0-.75.99,4.056,4.056,0,0,0-.21,1.11c-.03.42-.03.96-.03,1.62a10.336,10.336,0,0,0,.21,2.58,1.839,1.839,0,0,0,.78,1.11,3,3,0,0,0,1.5.33A3.583,3.583,0,0,0,229.17,42.38Z" transform="translate(-189.48 -28.52)" fill="#515151"/>
    <path id="Path_2116" data-name="Path 2116" d="M257.8,32.99V17.6h1.56V32.99Z" transform="translate(-213.49 -17.6)" fill="#515151"/>
    <path id="Path_2117" data-name="Path 2117" d="M271.5,19.4V17.6h1.68v1.8Zm.03,13.59V22.43h1.56V32.99Z" transform="translate(-223.08 -17.6)" fill="#515151"/>
    <path id="Path_2118" data-name="Path 2118" d="M283.73,37.12V27.91H281.9V26.53h1.83V23.5h1.56v3.06h2.16v1.38h-2.16v9.18Z" transform="translate(-230.36 -21.73)" fill="#515151"/>
    <path id="Path_2119" data-name="Path 2119" d="M311.82,39.03h-6.33a10.224,10.224,0,0,0,.18,2.31,1.352,1.352,0,0,0,.78.96,5.44,5.44,0,0,0,2.01.27,23.09,23.09,0,0,0,3-.24v1.29a11.209,11.209,0,0,1-1.5.21c-.63.06-1.23.09-1.83.09a6.046,6.046,0,0,1-2.79-.48,2.32,2.32,0,0,1-1.17-1.59,15.255,15.255,0,0,1-.27-3.36,17.573,17.573,0,0,1,.24-3.33,2.478,2.478,0,0,1,1.14-1.62,5.507,5.507,0,0,1,2.79-.54,5.053,5.053,0,0,1,2.58.51,2.274,2.274,0,0,1,.99,1.56,18.312,18.312,0,0,1,.21,3.36v.6Zm-5.49-4.41a1.294,1.294,0,0,0-.66.93,10.1,10.1,0,0,0-.18,2.28h4.83v-.21a7.334,7.334,0,0,0-.21-2.13,1.338,1.338,0,0,0-.66-.9,3.457,3.457,0,0,0-1.44-.21A4.408,4.408,0,0,0,306.33,34.62Z" transform="translate(-245.76 -28.38)" fill="#515151"/>
    <path id="Path_2120" data-name="Path 2120" d="M341.56,43.97a10.837,10.837,0,0,1-1.32.09,4.672,4.672,0,0,1-2.55-.54,2.465,2.465,0,0,1-1.05-1.65,16.933,16.933,0,0,1-.24-3.24,12.957,12.957,0,0,1,.3-3.27,2.645,2.645,0,0,1,1.11-1.65,4.682,4.682,0,0,1,2.4-.51,10.918,10.918,0,0,1,1.35.09q.72.09,1.17.18v1.29a10.148,10.148,0,0,0-2.16-.21,3.421,3.421,0,0,0-1.68.3,1.54,1.54,0,0,0-.69,1.14,13.735,13.735,0,0,0-.18,2.64,14.1,14.1,0,0,0,.18,2.67,1.531,1.531,0,0,0,.72,1.11,3.555,3.555,0,0,0,1.71.3,10.629,10.629,0,0,0,2.19-.21v1.29A7.483,7.483,0,0,1,341.56,43.97Z" transform="translate(-268.51 -28.52)" fill="#515151"/>
    <path id="Path_2121" data-name="Path 2121" d="M370.24,26.9a11.051,11.051,0,0,0-.15-2.13,1.14,1.14,0,0,0-.6-.84,3.528,3.528,0,0,0-1.47-.21,2.821,2.821,0,0,0-1.68.42,1.838,1.838,0,0,0-.66,1.2,13.533,13.533,0,0,0-.12,2.16v5.49H364V17.6h1.56v6.18h.09a2.372,2.372,0,0,1,.99-1.11,4.046,4.046,0,0,1,2.01-.39,3.936,3.936,0,0,1,2.01.42,1.986,1.986,0,0,1,.9,1.26,9.581,9.581,0,0,1,.24,2.37v6.69h-1.56Z" transform="translate(-287.83 -17.6)" fill="#515151"/>
  </g>
  <g id="Group_106" data-name="Group 106">
    <path id="Path_2122" data-name="Path 2122" d="M30.75.42h0a2.889,2.889,0,0,0-3,0h0l-5.25,3,.75,1.29,5.25-3h0a1.444,1.444,0,0,1,1.5,0h0l5.25,3L36,3.42Z" transform="translate(-15.75 0)" fill="#515151"/>
    <path id="Path_2123" data-name="Path 2123" d="M25.5,16.15h0L21.54,13.9l-.75,1.29,3.96,2.25h0a1.484,1.484,0,0,1,0,2.58h0l-10.5,6h0a1.444,1.444,0,0,1-1.5,0h0L4.5,21.31h0L2.25,20.02h0a1.484,1.484,0,0,1,0-2.58h0L4.5,16.15h0l1.68-.96L5.43,13.9,1.5,16.15h0A2.952,2.952,0,0,0,0,18.73v12a2.952,2.952,0,0,0,1.5,2.58h0l10.5,6h0a2.9,2.9,0,0,0,1.5.42,2.82,2.82,0,0,0,1.5-.42h0l10.5-6h0A2.952,2.952,0,0,0,27,30.73v-12A2.952,2.952,0,0,0,25.5,16.15Zm-.75,15.87h0L22.5,33.31h0l-8.25,4.71h0a1.444,1.444,0,0,1-1.5,0h0L10.5,36.73h0L2.25,32.02h0a1.513,1.513,0,0,1-.75-1.29V21.34l10.5,6h0a2.9,2.9,0,0,0,1.5.42,2.82,2.82,0,0,0,1.5-.42h0l10.5-6v9.39A1.513,1.513,0,0,1,24.75,32.02Z" transform="translate(0 -9.73)" fill="#515151"/>
    <path id="Path_2124" data-name="Path 2124" d="M37.92,12.91,33,10.09h0a.89.89,0,0,0-.78,0h0L27.3,12.91l.75,1.29,4.56-2.58,4.53,2.58Z" transform="translate(-19.11 -7)" fill="#3b97d3"/>
  </g>
</svg>
