<svg xmlns="http://www.w3.org/2000/svg" viewBox="0 0 56 56">
  <defs>
    <style>
      .cls-1 {
        fill: #0000f3;
      }

      .cls-2 {
        fill: #fff;
      }
    </style>
  </defs>
  <g id="logo" transform="translate(-584 -1002)">
    <rect id="Rectangle_1" data-name="Rectangle 1" class="cls-1" width="56" height="56" transform="translate(584 1002)"/>
    <path id="Path_451" data-name="Path 451" class="cls-2" d="M6.9,24.2a14.671,14.671,0,0,1,8.8-2.6,13.119,13.119,0,0,1,5.016.947,30.865,30.865,0,0,1,3.928,2.035c1.183.71,2.366,1.42,3.549,2.035a9.337,9.337,0,0,0,4.07.947,9.489,9.489,0,0,0,5.016-1.183A8.41,8.41,0,0,0,40.5,23.154l6.2,5.584a14.2,14.2,0,0,1-5.679,6.673,15.144,15.144,0,0,1-8.14,2.272,14.43,14.43,0,0,1-5.49-.947,27.222,27.222,0,0,1-4.07-2.035,33.451,33.451,0,0,0-3.786-2.13,9.749,9.749,0,0,0-4.165-.947,10.435,10.435,0,0,0-5.348,1.325,13.691,13.691,0,0,0-3.549,3.455L.7,31.247A18.537,18.537,0,0,1,6.9,24.2Z" transform="translate(588.3 1000.415)"/>
  </g>
</svg>
