<svg xmlns="http://www.w3.org/2000/svg" xmlns:xlink="http://www.w3.org/1999/xlink" width="28.399" height="38" viewBox="0 0 28.399 38">
  <defs>
    <filter id="Path_2154" x="0" y="0" width="28.399" height="38" filterUnits="userSpaceOnUse">
      <feOffset input="SourceAlpha"/>
      <feGaussianBlur stdDeviation="1" result="blur"/>
      <feFlood flood-opacity="0.4"/>
      <feComposite operator="in" in2="blur"/>
      <feComposite in="SourceGraphic"/>
    </filter>
  </defs>
  <g id="twotone-place-24px" transform="translate(-5.333 -0.333)">
    <g transform="matrix(1, 0, 0, 1, 5.33, 0.33)" filter="url(#Path_2154)">
      <g id="Path_2154-2" data-name="Path 2154" transform="translate(5594 874)" fill="#0000f3">
        <path d="M -5579.7998046875 -840.5267944335938 C -5580.8095703125 -841.7178344726563 -5582.70703125 -844.0451049804688 -5584.58447265625 -846.8302612304688 C -5588.12646484375 -852.0850830078125 -5589.9990234375 -856.5699462890625 -5589.9990234375 -859.800048828125 C -5589.9990234375 -862.52783203125 -5588.93896484375 -865.09033203125 -5587.01416015625 -867.015380859375 C -5585.08935546875 -868.9404296875 -5582.52734375 -870.0006103515625 -5579.7998046875 -870.0006103515625 C -5577.072265625 -870.0006103515625 -5574.51025390625 -868.9404296875 -5572.5849609375 -867.015380859375 C -5570.65966796875 -865.0902099609375 -5569.599609375 -862.5277709960938 -5569.599609375 -859.800048828125 C -5569.599609375 -856.5699462890625 -5571.47216796875 -852.0850830078125 -5575.0146484375 -846.8302612304688 C -5576.892578125 -844.0451049804688 -5578.78955078125 -841.7178344726563 -5579.7998046875 -840.5267944335938 Z" stroke="none"/>
        <path d="M -5579.7998046875 -869.0006103515625 C -5582.26025390625 -869.0006103515625 -5584.57080078125 -868.0444946289063 -5586.30712890625 -866.308349609375 C -5588.04296875 -864.5720825195313 -5588.9990234375 -862.2607421875 -5588.9990234375 -859.800048828125 C -5588.9990234375 -856.7742309570313 -5587.1904296875 -852.48974609375 -5583.76904296875 -847.4097900390625 C -5582.314453125 -845.2500610351563 -5580.845703125 -843.3674926757813 -5579.7998046875 -842.08935546875 C -5578.75341796875 -843.3675537109375 -5577.28466796875 -845.2501220703125 -5575.830078125 -847.4098510742188 C -5572.408203125 -852.4898071289063 -5570.599609375 -856.7742919921875 -5570.599609375 -859.800048828125 C -5570.599609375 -862.2606201171875 -5571.5556640625 -864.5719604492188 -5573.2919921875 -866.3082275390625 C -5575.0283203125 -868.04443359375 -5577.33935546875 -869.0006103515625 -5579.7998046875 -869.0006103515625 M -5579.7998046875 -871.0006103515625 C -5573.6083984375 -871.0006103515625 -5568.599609375 -865.992431640625 -5568.599609375 -859.800048828125 C -5568.599609375 -851.39990234375 -5579.7998046875 -839.0006103515625 -5579.7998046875 -839.0006103515625 C -5579.7998046875 -839.0006103515625 -5590.9990234375 -851.39990234375 -5590.9990234375 -859.800048828125 C -5590.9990234375 -865.992431640625 -5585.9912109375 -871.0006103515625 -5579.7998046875 -871.0006103515625 Z" stroke="none" fill="#fff"/>
      </g>
    </g>
    <circle id="Ellipse_65" data-name="Ellipse 65" cx="4" cy="4" r="4" transform="translate(15.533 10.533)" fill="#fff"/>
  </g>
</svg>
