<svg id="twotone-check_circle-24px" xmlns="http://www.w3.org/2000/svg" width="24" height="24" viewBox="0 0 24 24">
  <path id="Path_2134" data-name="Path 2134" d="M0,0H24V24H0Z" fill="none"/>
  <path id="Path_2135" data-name="Path 2135" d="M12,4a8,8,0,1,0,8,8A8.011,8.011,0,0,0,12,4ZM10,17,6,13l1.41-1.41L10,14.17l6.59-6.59L18,9Z" fill="#fff" opacity="0.3"/>
  <path id="Path_2136" data-name="Path 2136" d="M12,2A10,10,0,1,0,22,12,10,10,0,0,0,12,2Zm0,18a8,8,0,1,1,8-8A8.011,8.011,0,0,1,12,20ZM16.59,7.58,10,14.17,7.41,11.59,6,13l4,4,8-8Z" fill="#fff"/>
</svg>
